<?xml version="1.0" encoding="UTF-8" standalone="no"?>
<!DOCTYPE svg PUBLIC "-//W3C//DTD SVG 1.1//EN" "http://www.w3.org/Graphics/SVG/1.1/DTD/svg11.dtd">
<svg version="1.1" xmlns="http://www.w3.org/2000/svg" xmlns:xlink="http://www.w3.org/1999/xlink" preserveAspectRatio="xMidYMid meet" viewBox="0 0 1200 400" width="1200" height="400"><defs><path d="M33.16 250L8.16 262.5L8.16 287.5L33.16 300L58.16 287.5L58.16 262.5L33.16 250Z" id="b1bfrtA330"></path><path d="M166.5 250L141.5 262.5L141.5 287.5L166.5 300L191.5 287.5L191.5 262.5L166.5 250Z" id="f2sTerfog6"></path><path d="M233.16 250L208.16 262.5L208.16 287.5L233.16 300L258.16 287.5L258.16 262.5L233.16 250Z" id="d6V9L1lHvo"></path><path d="M299.83 250L274.83 262.5L274.83 287.5L299.83 300L324.83 287.5L324.83 262.5L299.83 250Z" id="g1WQ39h6wA"></path><path d="M366.5 250L341.5 262.5L341.5 287.5L366.5 300L391.5 287.5L391.5 262.5L366.5 250Z" id="h2pa7GHnd0"></path><path d="M433.16 250L408.16 262.5L408.16 287.5L433.16 300L458.16 287.5L458.16 262.5L433.16 250Z" id="d3FQ1tz8vk"></path><path d="M566.5 250L541.5 262.5L541.5 287.5L566.5 300L591.5 287.5L591.5 262.5L566.5 250Z" id="h225T6aHLl"></path><path d="M633.16 250.01L608.16 262.51L608.16 287.51L633.16 300.01L658.16 287.51L658.16 262.51L633.16 250.01Z" id="a2z5Kr8VN"></path><path d="M699.83 250.01L674.83 262.51L674.83 287.51L699.83 300.01L724.83 287.51L724.83 262.51L699.83 250.01Z" id="a3CWJg9mVs"></path><path d="M766.5 250.01L741.5 262.51L741.5 287.51L766.5 300.01L791.5 287.51L791.5 262.51L766.5 250.01Z" id="eGUiq0LrI"></path><path d="M833.16 250L808.16 262.5L808.16 287.5L833.16 300L858.16 287.5L858.16 262.5L833.16 250Z" id="acLqS9dIh"></path><path d="M966.5 250L941.5 262.5L941.5 287.5L966.5 300L991.5 287.5L991.5 262.5L966.5 250Z" id="b28rA2ComS"></path><path d="M1033.16 250L1008.16 262.5L1008.16 287.5L1033.16 300L1058.16 287.5L1058.16 262.5L1033.16 250Z" id="c1mx6NnTvq"></path><path d="M1099.83 250L1074.83 262.5L1074.83 287.5L1099.83 300L1124.83 287.5L1124.83 262.5L1099.83 250Z" id="b3C84fOeNw"></path><path d="M1166.5 250L1141.5 262.5L1141.5 287.5L1166.5 300L1191.5 287.5L1191.5 262.5L1166.5 250Z" id="a9xXpKv3a"></path><path d="M66.49 200L41.49 212.5L41.49 237.5L66.49 250L91.49 237.5L91.49 212.5L66.49 200Z" id="g2MBu4c8EV"></path><path d="M133.17 200L108.17 212.5L108.17 237.5L133.17 250L158.17 237.5L158.17 212.5L133.17 200Z" id="bhGUq5pD"></path><path d="M266.49 200.01L241.49 212.51L241.49 237.51L266.49 250.01L291.49 237.51L291.49 212.51L266.49 200.01Z" id="a2BhNCYqjW"></path><path d="M333.16 200.01L308.16 212.51L308.16 237.51L333.16 250.01L358.16 237.51L358.16 212.51L333.16 200.01Z" id="a55rAkvcN"></path><path d="M399.83 200.01L374.83 212.51L374.83 237.51L399.83 250.01L424.83 237.51L424.83 212.51L399.83 200.01Z" id="cXPAx2xS1"></path><path d="M466.49 200.01L441.49 212.51L441.49 237.51L466.49 250.01L491.49 237.51L491.49 212.51L466.49 200.01Z" id="f1bK4hpwuy"></path><path d="M533.17 200.01L508.17 212.51L508.17 237.51L533.17 250.01L558.17 237.51L558.17 212.51L533.17 200.01Z" id="aaWSRLIhL"></path><path d="M666.49 200.01L641.49 212.51L641.49 237.51L666.49 250.01L691.49 237.51L691.49 212.51L666.49 200.01Z" id="aOCYsQYRQ"></path><path d="M733.16 200.01L708.16 212.51L708.16 237.51L733.16 250.01L758.16 237.51L758.16 212.51L733.16 200.01Z" id="c1t2xilhYr"></path><path d="M799.83 200.01L774.83 212.51L774.83 237.51L799.83 250.01L824.83 237.51L824.83 212.51L799.83 200.01Z" id="abLncATRz"></path><path d="M866.49 200L841.49 212.5L841.49 237.5L866.49 250L891.49 237.5L891.49 212.5L866.49 200Z" id="bauOz4VPs"></path><path d="M933.17 200L908.17 212.5L908.17 237.5L933.17 250L958.17 237.5L958.17 212.5L933.17 200Z" id="bdiSr2Vft"></path><path d="M1066.49 200L1041.49 212.5L1041.49 237.5L1066.49 250L1091.49 237.5L1091.49 212.5L1066.49 200Z" id="mEM64X9W"></path><path d="M1133.16 200L1108.16 212.5L1108.16 237.5L1133.16 250L1158.16 237.5L1158.16 212.5L1133.16 200Z" id="a1QVDfULcZ"></path><path d="M33.16 150L8.16 162.5L8.16 187.5L33.16 200L58.16 187.5L58.16 162.5L33.16 150Z" id="d2guj8Ib7T"></path><path d="M98.83 150L73.83 162.5L73.83 187.5L98.83 200L123.84 187.5L123.84 162.5L98.83 150Z" id="b15ASUgPxt"></path><path d="M166.5 150L141.5 162.5L141.5 187.5L166.5 200L191.5 187.5L191.5 162.5L166.5 150Z" id="k1tU8igtGF"></path><path d="M233.16 150L208.16 162.5L208.16 187.5L233.16 200L258.16 187.5L258.16 162.5L233.16 150Z" id="b61DSBfmjS"></path><path d="M299.83 150L274.83 162.5L274.83 187.5L299.83 200L324.83 187.5L324.83 162.5L299.83 150Z" id="b7k3bbn6BR"></path><path d="M433.16 150L408.16 162.5L408.16 187.5L433.16 200L458.16 187.5L458.16 162.5L433.16 150Z" id="j155dYmbj2"></path><path d="M499.84 150L474.84 162.5L474.84 187.5L499.84 200L524.84 187.5L524.84 162.5L499.84 150Z" id="a1uhraT6jh"></path><path d="M566.5 150L541.5 162.5L541.5 187.5L566.5 200L591.5 187.5L591.5 162.5L566.5 150Z" id="b3u0PixOvY"></path><path d="M633.16 150.01L608.16 162.51L608.16 187.51L633.16 200.01L658.16 187.51L658.16 162.51L633.16 150.01Z" id="aZDPqeheu"></path><path d="M699.83 150.01L674.83 162.51L674.83 187.51L699.83 200.01L724.83 187.51L724.83 162.51L699.83 150.01Z" id="aqrAtc2Kw"></path><path d="M833.16 150L808.16 162.5L808.16 187.5L833.16 200L858.16 187.5L858.16 162.5L833.16 150Z" id="aObCep7wf"></path><path d="M899.84 150L874.84 162.5L874.84 187.5L899.84 200L924.84 187.5L924.84 162.5L899.84 150Z" id="d1EbqbpBOL"></path><path d="M966.5 150L941.5 162.5L941.5 187.5L966.5 200L991.5 187.5L991.5 162.5L966.5 150Z" id="a3ssJpecat"></path><path d="M1033.16 150L1008.16 162.5L1008.16 187.5L1033.16 200L1058.16 187.5L1058.16 162.5L1033.16 150Z" id="m1PuWzD94O"></path><path d="M1099.83 150L1074.83 162.5L1074.83 187.5L1099.83 200L1124.83 187.5L1124.83 162.5L1099.83 150Z" id="bboiT2840"></path><path d="M66.49 100L41.49 112.5L41.49 137.5L66.49 150L91.49 137.5L91.49 112.5L66.49 100Z" id="a7VXhZ2wZB"></path><path d="M199.83 100L174.83 112.5L174.83 137.5L199.83 150L224.83 137.5L224.83 112.5L199.83 100Z" id="gQaGTRDKZ"></path><path d="M266.49 100.01L241.49 112.51L241.49 137.51L266.49 150.01L291.49 137.51L291.49 112.51L266.49 100.01Z" id="b2idAq5bTQ"></path><path d="M333.16 100.01L308.16 112.51L308.16 137.51L333.16 150.01L358.16 137.51L358.16 112.51L333.16 100.01Z" id="bi5VUm5FI"></path><path d="M399.83 100.01L374.83 112.51L374.83 137.51L399.83 150.01L424.83 137.51L424.83 112.51L399.83 100.01Z" id="a1aJx1io9X"></path><path d="M466.49 100.01L441.49 112.51L441.49 137.51L466.49 150.01L491.49 137.51L491.49 112.51L466.49 100.01Z" id="e32yVEkYDJ"></path><path d="M599.83 100.01L574.83 112.51L574.83 137.51L599.83 150.01L624.83 137.51L624.83 112.51L599.83 100.01Z" id="h2tqdHukzr"></path><path d="M666.49 100.01L641.49 112.51L641.49 137.51L666.49 150.01L691.49 137.51L691.49 112.51L666.49 100.01Z" id="a1hGktqoAE"></path><path d="M733.16 100.01L708.16 112.51L708.16 137.51L733.16 150.01L758.16 137.51L758.16 112.51L733.16 100.01Z" id="g6qLtls0HA"></path><path d="M799.83 100.01L774.83 112.51L774.83 137.51L799.83 150.01L824.83 137.51L824.83 112.51L799.83 100.01Z" id="a3suhHnv2u"></path><path d="M866.49 100L841.49 112.5L841.49 137.5L866.49 150L891.49 137.5L891.49 112.5L866.49 100Z" id="hiftDKNQ"></path><path d="M999.83 100L974.83 112.5L974.83 137.5L999.83 150L1024.83 137.5L1024.83 112.5L999.83 100Z" id="c2eFwLdOJf"></path><path d="M1066.49 100L1041.49 112.5L1041.49 137.5L1066.49 150L1091.49 137.5L1091.49 112.5L1066.49 100Z" id="a3bUhULYqB"></path><path d="M1133.16 100L1108.16 112.5L1108.16 137.5L1133.16 150L1158.16 137.5L1158.16 112.5L1133.16 100Z" id="b18CFtgnR0"></path><path d="M1199.83 200L1174.83 212.5L1174.83 237.5L1199.83 250L1224.83 237.5L1224.83 212.5L1199.83 200Z" id="afHdbiMeE"></path><path d="M1199.83 100L1174.83 112.5L1174.83 137.5L1199.83 150L1224.83 137.5L1224.83 112.5L1199.83 100Z" id="cc31hLrKs"></path><path d="M-0.17 100L-25.17 112.5L-25.17 137.5L-0.17 150L24.83 137.5L24.83 112.5L-0.17 100Z" id="ddUvu5D3T"></path><path d="M-0.17 200L-25.17 212.5L-25.17 237.5L-0.17 250L24.83 237.5L24.83 212.5L-0.17 200Z" id="b1VnOOvnMl"></path></defs><g><g><g><use xlink:href="#b1bfrtA330" opacity="1" fill="#38aded" fill-opacity="1"></use></g><g><use xlink:href="#f2sTerfog6" opacity="1" fill="#d8d8d8" fill-opacity="1"></use></g><g><use xlink:href="#d6V9L1lHvo" opacity="1" fill="#5690b1" fill-opacity="1"></use></g><g><use xlink:href="#g1WQ39h6wA" opacity="1" fill="#7d7d7d" fill-opacity="1"></use></g><g><use xlink:href="#h2pa7GHnd0" opacity="1" fill="#d8d8d8" fill-opacity="1"></use></g><g><use xlink:href="#d3FQ1tz8vk" opacity="1" fill="#b6b6b6" fill-opacity="1"></use></g><g><use xlink:href="#h225T6aHLl" opacity="1" fill="#38aded" fill-opacity="1"></use></g><g><use xlink:href="#a2z5Kr8VN" opacity="1" fill="#b6b6b6" fill-opacity="1"></use></g><g><use xlink:href="#a3CWJg9mVs" opacity="1" fill="#d8d8d8" fill-opacity="1"></use></g><g><use xlink:href="#eGUiq0LrI" opacity="1" fill="#38aded" fill-opacity="1"></use></g><g><use xlink:href="#acLqS9dIh" opacity="1" fill="#38aded" fill-opacity="1"></use></g><g><use xlink:href="#b28rA2ComS" opacity="1" fill="#5690b1" fill-opacity="1"></use></g><g><use xlink:href="#c1mx6NnTvq" opacity="1" fill="#b6b6b6" fill-opacity="1"></use></g><g><use xlink:href="#b3C84fOeNw" opacity="1" fill="#5690b1" fill-opacity="1"></use></g><g><use xlink:href="#a9xXpKv3a" opacity="1" fill="#9dceea" fill-opacity="1"></use></g><g><use xlink:href="#g2MBu4c8EV" opacity="1" fill="#38aded" fill-opacity="1"></use></g><g><use xlink:href="#bhGUq5pD" opacity="1" fill="#b6b6b6" fill-opacity="1"></use></g><g><use xlink:href="#a2BhNCYqjW" opacity="1" fill="#5690b1" fill-opacity="1"></use></g><g><use xlink:href="#a55rAkvcN" opacity="1" fill="#38aded" fill-opacity="1"></use></g><g><use xlink:href="#cXPAx2xS1" opacity="1" fill="#9dceea" fill-opacity="1"></use></g><g><use xlink:href="#f1bK4hpwuy" opacity="1" fill="#9dceea" fill-opacity="1"></use></g><g><use xlink:href="#aaWSRLIhL" opacity="1" fill="#38aded" fill-opacity="1"></use></g><g><use xlink:href="#aOCYsQYRQ" opacity="1" fill="#5690b1" fill-opacity="1"></use></g><g><use xlink:href="#c1t2xilhYr" opacity="1" fill="#5690b1" fill-opacity="1"></use></g><g><use xlink:href="#abLncATRz" opacity="1" fill="#7d7d7d" fill-opacity="1"></use></g><g><use xlink:href="#bauOz4VPs" opacity="1" fill="#38aded" fill-opacity="1"></use></g><g><use xlink:href="#bdiSr2Vft" opacity="1" fill="#5690b1" fill-opacity="1"></use></g><g><use xlink:href="#mEM64X9W" opacity="1" fill="#5690b1" fill-opacity="1"></use></g><g><use xlink:href="#a1QVDfULcZ" opacity="1" fill="#b6b6b6" fill-opacity="1"></use></g><g><use xlink:href="#d2guj8Ib7T" opacity="1" fill="#7d7d7d" fill-opacity="1"></use></g><g><use xlink:href="#b15ASUgPxt" opacity="1" fill="#5690b1" fill-opacity="1"></use></g><g><use xlink:href="#k1tU8igtGF" opacity="1" fill="#9dceea" fill-opacity="1"></use></g><g><use xlink:href="#b61DSBfmjS" opacity="1" fill="#b6b6b6" fill-opacity="1"></use></g><g><use xlink:href="#b7k3bbn6BR" opacity="1" fill="#38aded" fill-opacity="1"></use></g><g><use xlink:href="#j155dYmbj2" opacity="1" fill="#d8d8d8" fill-opacity="1"></use></g><g><use xlink:href="#a1uhraT6jh" opacity="1" fill="#b6b6b6" fill-opacity="1"></use></g><g><use xlink:href="#b3u0PixOvY" opacity="1" fill="#5690b1" fill-opacity="1"></use></g><g><use xlink:href="#aZDPqeheu" opacity="1" fill="#b6b6b6" fill-opacity="1"></use></g><g><use xlink:href="#aqrAtc2Kw" opacity="1" fill="#9dceea" fill-opacity="1"></use></g><g><use xlink:href="#aObCep7wf" opacity="1" fill="#9dceea" fill-opacity="1"></use></g><g><use xlink:href="#d1EbqbpBOL" opacity="1" fill="#9dceea" fill-opacity="1"></use></g><g><use xlink:href="#a3ssJpecat" opacity="1" fill="#b6b6b6" fill-opacity="1"></use></g><g><use xlink:href="#m1PuWzD94O" opacity="1" fill="#5690b1" fill-opacity="1"></use></g><g><use xlink:href="#bboiT2840" opacity="1" fill="#5690b1" fill-opacity="1"></use></g><g><use xlink:href="#a7VXhZ2wZB" opacity="1" fill="#d8d8d8" fill-opacity="1"></use></g><g><use xlink:href="#gQaGTRDKZ" opacity="1" fill="#9dceea" fill-opacity="1"></use></g><g><use xlink:href="#b2idAq5bTQ" opacity="1" fill="#d8d8d8" fill-opacity="1"></use></g><g><use xlink:href="#bi5VUm5FI" opacity="1" fill="#5690b1" fill-opacity="1"></use></g><g><use xlink:href="#a1aJx1io9X" opacity="1" fill="#7d7d7d" fill-opacity="1"></use></g><g><use xlink:href="#e32yVEkYDJ" opacity="1" fill="#d8d8d8" fill-opacity="1"></use></g><g><use xlink:href="#h2tqdHukzr" opacity="1" fill="#d8d8d8" fill-opacity="1"></use></g><g><use xlink:href="#a1hGktqoAE" opacity="1" fill="#9dceea" fill-opacity="1"></use></g><g><use xlink:href="#g6qLtls0HA" opacity="1" fill="#d8d8d8" fill-opacity="1"></use></g><g><use xlink:href="#a3suhHnv2u" opacity="1" fill="#b6b6b6" fill-opacity="1"></use></g><g><use xlink:href="#hiftDKNQ" opacity="1" fill="#578199" fill-opacity="1"></use></g><g><use xlink:href="#c2eFwLdOJf" opacity="1" fill="#38aded" fill-opacity="1"></use></g><g><use xlink:href="#a3bUhULYqB" opacity="1" fill="#38aded" fill-opacity="1"></use></g><g><use xlink:href="#b18CFtgnR0" opacity="1" fill="#7d7d7d" fill-opacity="1"></use></g><g><use xlink:href="#afHdbiMeE" opacity="1" fill="#9dceea" fill-opacity="1"></use></g><g><use xlink:href="#cc31hLrKs" opacity="1" fill="#5690b1" fill-opacity="1"></use></g><g><use xlink:href="#ddUvu5D3T" opacity="1" fill="#5690b1" fill-opacity="1"></use></g><g><use xlink:href="#b1VnOOvnMl" opacity="1" fill="#9dceea" fill-opacity="1"></use></g></g></g></svg>