<?xml version="1.0" encoding="UTF-8" standalone="no"?>
<!DOCTYPE svg PUBLIC "-//W3C//DTD SVG 1.1//EN" "http://www.w3.org/Graphics/SVG/1.1/DTD/svg11.dtd">
<svg version="1.1" xmlns="http://www.w3.org/2000/svg" xmlns:xlink="http://www.w3.org/1999/xlink" preserveAspectRatio="xMidYMid meet" viewBox="0 0 1200 400" width="1200" height="400"><defs><path d="M199.83 200L174.83 212.5L174.83 237.5L199.83 250L224.83 237.5L224.83 212.5L199.83 200Z" id="bw89tXVdO"></path><path d="M533.17 100L508.17 112.5L508.17 137.5L533.17 150L558.17 137.5L558.17 112.5L533.17 100Z" id="d1KK8eYBd3"></path><path d="M599.83 200L574.83 212.5L574.83 237.5L599.83 250L624.83 237.5L624.83 212.5L599.83 200Z" id="f3stlwgp6j"></path><path d="M899.84 250L874.84 262.5L874.84 287.5L899.84 300L924.84 287.5L924.84 262.5L899.84 250Z" id="a6ns5tsOEE"></path><path d="M933.17 100L908.17 112.5L908.17 137.5L933.17 150L958.17 137.5L958.17 112.5L933.17 100Z" id="c1A7Rxwrf"></path></defs><g><g><g><use xlink:href="#bw89tXVdO" opacity="1" fill="#30acf2" fill-opacity="1"></use></g><g><use xlink:href="#d1KK8eYBd3" opacity="1" fill="#30acf2" fill-opacity="1"></use></g><g><use xlink:href="#f3stlwgp6j" opacity="1" fill="#30acf2" fill-opacity="1"></use></g><g><use xlink:href="#a6ns5tsOEE" opacity="1" fill="#30acf2" fill-opacity="1"></use></g><g><use xlink:href="#c1A7Rxwrf" opacity="1" fill="#30acf2" fill-opacity="1"></use></g></g></g></svg>