<?xml version="1.0" encoding="UTF-8" standalone="no"?>
<!DOCTYPE svg PUBLIC "-//W3C//DTD SVG 1.1//EN" "http://www.w3.org/Graphics/SVG/1.1/DTD/svg11.dtd">
<svg version="1.1" xmlns="http://www.w3.org/2000/svg" xmlns:xlink="http://www.w3.org/1999/xlink" preserveAspectRatio="xMidYMid meet" viewBox="0 0 1200 400" width="1200" height="400"><defs><path d="M133.27 100L108.27 112.5L108.27 137.5L133.27 150L158.27 137.5L158.27 112.5L133.27 100Z" id="cCsgVeTHX"></path><path d="M99.83 250L74.83 262.5L74.83 287.5L99.83 300L124.83 287.5L124.83 262.5L99.83 250Z" id="a4GTOdO41f"></path><path d="M366.51 150L341.51 162.5L341.51 187.5L366.51 200L391.51 187.5L391.51 162.5L366.51 150Z" id="aPHJo4lx5"></path><path d="M499.84 250L474.84 262.5L474.84 287.5L499.84 300L524.84 287.5L524.84 262.5L499.84 250Z" id="dWpTOjlu"></path><path d="M766.51 150L741.51 162.5L741.51 187.5L766.51 200L791.51 187.5L791.51 162.5L766.51 150Z" id="a1c2EuOpLQ"></path><path d="M999.83 200L974.83 212.5L974.83 237.5L999.83 250L1024.83 237.5L1024.83 212.5L999.83 200Z" id="j4f5Kbuhtg"></path><path d="M1166.51 150L1141.51 162.5L1141.51 187.5L1166.51 200L1191.51 187.5L1191.51 162.5L1166.51 150Z" id="eYPQNrXXo"></path></defs><g><g><g><use xlink:href="#cCsgVeTHX" opacity="1" fill="#30acf2" fill-opacity="1"></use></g><g><use xlink:href="#a4GTOdO41f" opacity="1" fill="#30acf2" fill-opacity="1"></use></g><g><use xlink:href="#aPHJo4lx5" opacity="1" fill="#30acf2" fill-opacity="1"></use></g><g><use xlink:href="#dWpTOjlu" opacity="1" fill="#30acf2" fill-opacity="1"></use></g><g><use xlink:href="#a1c2EuOpLQ" opacity="1" fill="#30acf2" fill-opacity="1"></use></g><g><use xlink:href="#j4f5Kbuhtg" opacity="1" fill="#30acf2" fill-opacity="1"></use></g><g><use xlink:href="#eYPQNrXXo" opacity="1" fill="#30acf2" fill-opacity="1"></use></g></g></g></svg>