<?xml version="1.0" encoding="UTF-8" standalone="no"?>
<!DOCTYPE svg PUBLIC "-//W3C//DTD SVG 1.1//EN" "http://www.w3.org/Graphics/SVG/1.1/DTD/svg11.dtd">
<svg version="1.1" xmlns="http://www.w3.org/2000/svg" xmlns:xlink="http://www.w3.org/1999/xlink" preserveAspectRatio="xMidYMid meet" viewBox="0 0 480 83" width="480" height="83"><defs><path d="M13.33 61.5L3.33 66.5L3.33 76.49L13.33 81.49L23.33 76.49L23.33 66.5L13.33 61.5Z" id="a7X6DxJqK"></path><path d="M66.67 61.5L56.67 66.5L56.67 76.49L66.67 81.49L76.67 76.49L76.67 66.5L66.67 61.5Z" id="fBrEERPYg"></path><path d="M93.33 61.5L83.33 66.5L83.33 76.5L93.33 81.5L103.33 76.5L103.33 66.5L93.33 61.5Z" id="f3dmpKNmFp"></path><path d="M120 61.5L110 66.5L110 76.5L120 81.5L130 76.5L130 66.5L120 61.5Z" id="b1F06cWm4j"></path><path d="M146.66 61.5L136.66 66.5L136.66 76.5L146.66 81.5L156.66 76.5L156.66 66.5L146.66 61.5Z" id="cwojzCYfQ"></path><path d="M173.33 61.5L163.33 66.5L163.33 76.5L173.33 81.5L183.33 76.5L183.33 66.5L173.33 61.5Z" id="d28EUtf5b"></path><path d="M226.67 61.5L216.67 66.5L216.67 76.5L226.67 81.5L236.67 76.5L236.67 66.5L226.67 61.5Z" id="cxM1zvOVY"></path><path d="M253.33 61.5L243.33 66.5L243.33 76.5L253.33 81.5L263.33 76.5L263.33 66.5L253.33 61.5Z" id="a1DmRzbR9j"></path><path d="M280 61.5L270 66.5L270 76.5L280 81.5L290 76.5L290 66.5L280 61.5Z" id="aLRM8DDLr"></path><path d="M306.66 61.5L296.66 66.5L296.66 76.5L306.66 81.5L316.66 76.5L316.66 66.5L306.66 61.5Z" id="c2e7RzP8Sz"></path><path d="M333.33 61.5L323.33 66.5L323.33 76.49L333.33 81.49L343.33 76.49L343.33 66.5L333.33 61.5Z" id="d2Tm5UEJ7j"></path><path d="M386.67 61.5L376.67 66.5L376.67 76.49L386.67 81.49L396.67 76.49L396.67 66.5L386.67 61.5Z" id="a3NW67Fl8"></path><path d="M413.33 61.5L403.33 66.5L403.33 76.5L413.33 81.5L423.33 76.5L423.33 66.5L413.33 61.5Z" id="bz8W7hx3C"></path><path d="M440 61.5L430 66.5L430 76.5L440 81.5L450 76.5L450 66.5L440 61.5Z" id="d6yUjCGwdu"></path><path d="M466.66 61.5L456.66 66.5L456.66 76.5L466.66 81.5L476.66 76.5L476.66 66.5L466.66 61.5Z" id="anGUxyRCd"></path><path d="M26.66 41.5L16.66 46.5L16.66 56.5L26.66 61.5L36.66 56.5L36.66 46.5L26.66 41.5Z" id="b27lDDfDVQ"></path><path d="M53.33 41.5L43.33 46.5L43.33 56.5L53.33 61.5L63.33 56.5L63.33 46.5L53.33 41.5Z" id="f1sUH6158"></path><path d="M106.66 41.5L96.66 46.5L96.66 56.5L106.66 61.5L116.66 56.5L116.66 46.5L106.66 41.5Z" id="a2g9V2zz3t"></path><path d="M133.33 41.5L123.33 46.5L123.33 56.5L133.33 61.5L143.33 56.5L143.33 46.5L133.33 41.5Z" id="n243Vo3Vo"></path><path d="M160 41.5L150 46.5L150 56.5L160 61.5L170 56.5L170 46.5L160 41.5Z" id="f54AHMqIsg"></path><path d="M186.66 41.5L176.66 46.5L176.66 56.5L186.66 61.5L196.66 56.5L196.66 46.5L186.66 41.5Z" id="cbbCbnXrw"></path><path d="M213.33 41.5L203.33 46.5L203.33 56.5L213.33 61.5L223.33 56.5L223.33 46.5L213.33 41.5Z" id="d3EcUMS62F"></path><path d="M266.66 41.5L256.66 46.5L256.66 56.5L266.66 61.5L276.66 56.5L276.66 46.5L266.66 41.5Z" id="j1j037JeL2"></path><path d="M293.33 41.5L283.33 46.5L283.33 56.5L293.33 61.5L303.33 56.5L303.33 46.5L293.33 41.5Z" id="k8n6ysDML"></path><path d="M320 41.5L310 46.5L310 56.5L320 61.5L330 56.5L330 46.5L320 41.5Z" id="b1P1CAN7gn"></path><path d="M346.66 41.5L336.66 46.5L336.66 56.5L346.66 61.5L356.66 56.5L356.66 46.5L346.66 41.5Z" id="h5AzbF1FM"></path><path d="M373.33 41.5L363.33 46.5L363.33 56.5L373.33 61.5L383.33 56.5L383.33 46.5L373.33 41.5Z" id="h1pCpWJ3ub"></path><path d="M426.66 41.5L416.66 46.49L416.66 56.49L426.66 61.49L436.66 56.49L436.66 46.49L426.66 41.5Z" id="a1wCDIaSaI"></path><path d="M453.33 41.5L443.33 46.49L443.33 56.49L453.33 61.49L463.33 56.49L463.33 46.49L453.33 41.5Z" id="b2t7CzBCz"></path><path d="M13.33 21.5L3.33 26.5L3.33 36.5L13.33 41.5L23.33 36.5L23.33 26.5L13.33 21.5Z" id="bRVAjtkT5"></path><path d="M40 21.5L30 26.5L30 36.5L40 41.5L50 36.5L50 26.5L40 21.5Z" id="c7kWJzO9VJ"></path><path d="M66.67 21.5L56.67 26.5L56.67 36.5L66.67 41.5L76.67 36.5L76.67 26.5L66.67 21.5Z" id="h1CCVqrXiI"></path><path d="M93.33 21.5L83.33 26.5L83.33 36.5L93.33 41.5L103.33 36.5L103.33 26.5L93.33 21.5Z" id="aBB4Jzhbd"></path><path d="M120 21.5L110 26.5L110 36.5L120 41.5L130 36.5L130 26.5L120 21.5Z" id="c1UIxKJB"></path><path d="M173.33 21.5L163.33 26.5L163.33 36.5L173.33 41.5L183.33 36.5L183.33 26.5L173.33 21.5Z" id="a2cqYSjxwX"></path><path d="M200 21.5L190 26.5L190 36.5L200 41.5L210 36.5L210 26.5L200 21.5Z" id="a1osu7G9Z"></path><path d="M226.67 21.5L216.67 26.5L216.67 36.5L226.67 41.5L236.67 36.5L236.67 26.5L226.67 21.5Z" id="c5KOUtx25y"></path><path d="M253.33 21.5L243.33 26.5L243.33 36.5L253.33 41.5L263.33 36.5L263.33 26.5L253.33 21.5Z" id="f1lOGyYrr"></path><path d="M280 21.5L270 26.5L270 36.5L280 41.5L290 36.5L290 26.5L280 21.5Z" id="bODDlzy6L"></path><path d="M333.33 21.5L323.33 26.5L323.33 36.5L333.33 41.5L343.33 36.5L343.33 26.5L333.33 21.5Z" id="aNhc3xfY"></path><path d="M360 21.5L350 26.5L350 36.5L360 41.5L370 36.5L370 26.5L360 21.5Z" id="d1jzLUKeFy"></path><path d="M386.67 21.5L376.67 26.5L376.67 36.5L386.67 41.5L396.67 36.5L396.67 26.5L386.67 21.5Z" id="azEaT0TWI"></path><path d="M413.33 21.5L403.33 26.5L403.33 36.5L413.33 41.5L423.33 36.5L423.33 26.5L413.33 21.5Z" id="d5hisgMOO"></path><path d="M440 21.5L430 26.5L430 36.5L440 41.5L450 36.5L450 26.5L440 21.5Z" id="f53PD2gqr"></path><path d="M26.66 1.5L16.66 6.5L16.66 16.5L26.66 21.5L36.66 16.5L36.66 6.5L26.66 1.5Z" id="dFzBerkpk"></path><path d="M80 1.5L70 6.5L70 16.5L80 21.5L90 16.5L90 6.5L80 1.5Z" id="b3T4ywW3n2"></path><path d="M106.66 1.5L96.66 6.5L96.66 16.5L106.66 21.5L116.66 16.5L116.66 6.5L106.66 1.5Z" id="g8NRcqDzQG"></path><path d="M133.33 1.5L123.33 6.5L123.33 16.5L133.33 21.5L143.33 16.5L143.33 6.5L133.33 1.5Z" id="c2WDqGoaB3"></path><path d="M160 1.5L150 6.5L150 16.5L160 21.5L170 16.5L170 6.5L160 1.5Z" id="afQ1MOKti"></path><path d="M186.66 1.5L176.66 6.5L176.66 16.5L186.66 21.5L196.66 16.5L196.66 6.5L186.66 1.5Z" id="ktz5fkdWb"></path><path d="M240 1.5L230 6.5L230 16.5L240 21.5L250 16.5L250 6.5L240 1.5Z" id="fzMHhteGE"></path><path d="M266.66 1.5L256.66 6.5L256.66 16.5L266.66 21.5L276.66 16.5L276.66 6.5L266.66 1.5Z" id="b1umyGfRK"></path><path d="M293.33 1.5L283.33 6.5L283.33 16.5L293.33 21.5L303.33 16.5L303.33 6.5L293.33 1.5Z" id="d250jjTiK9"></path><path d="M320 1.5L310 6.5L310 16.5L320 21.5L330 16.5L330 6.5L320 1.5Z" id="f1s9FtUz3F"></path><path d="M346.66 1.5L336.66 6.5L336.66 16.5L346.66 21.5L356.66 16.5L356.66 6.5L346.66 1.5Z" id="bSEiQeBFp"></path><path d="M400 1.5L390 6.5L390 16.5L400 21.5L410 16.5L410 6.5L400 1.5Z" id="a2jgax68AH"></path><path d="M426.66 1.5L416.66 6.5L416.66 16.5L426.66 21.5L436.66 16.5L436.66 6.5L426.66 1.5Z" id="a2nOdBcpt3"></path><path d="M453.33 1.5L443.33 6.5L443.33 16.5L453.33 21.5L463.33 16.5L463.33 6.5L453.33 1.5Z" id="aDYimCft"></path><path d="M480 41.5L470 46.5L470 56.5L480 61.5L490 56.5L490 46.5L480 41.5Z" id="j6qGDdlYOt"></path><path d="M480 1.5L470 6.5L470 16.5L480 21.5L490 16.5L490 6.5L480 1.5Z" id="c3jXyXoULS"></path><path d="M0 1.5L-10 6.5L-10 16.5L0 21.5L10 16.5L10 6.5L0 1.5Z" id="i1qzRHXQLh"></path><path d="M0 41.5L-10 46.5L-10 56.5L0 61.5L10 56.5L10 46.5L0 41.5Z" id="a22wjw4EkA"></path><path d="M53.37 1.5L43.37 6.5L43.37 16.5L53.37 21.5L63.37 16.5L63.37 6.5L53.37 1.5Z" id="a16ZsXzPOx"></path><path d="M40 61.5L30 66.5L30 76.49L40 81.49L50 76.49L50 66.5L40 61.5Z" id="b1sr6ilqZF"></path><path d="M80 41.5L70 46.5L70 56.5L80 61.5L90 56.5L90 46.5L80 41.5Z" id="b19L6gtEBi"></path><path d="M146.67 21.5L136.67 26.5L136.67 36.5L146.67 41.5L156.67 36.5L156.67 26.5L146.67 21.5Z" id="b1uFBeEqg5"></path><path d="M213.33 1.5L203.33 6.5L203.33 16.5L213.33 21.5L223.33 16.5L223.33 6.5L213.33 1.5Z" id="bGMybTGHw"></path><path d="M200 61.5L190 66.5L190 76.49L200 81.49L210 76.49L210 66.5L200 61.5Z" id="dcGsiAoD1"></path><path d="M240 41.5L230 46.5L230 56.5L240 61.5L250 56.5L250 46.5L240 41.5Z" id="c1XbAfD9hy"></path><path d="M306.67 21.5L296.67 26.5L296.67 36.5L306.67 41.5L316.67 36.5L316.67 26.5L306.67 21.5Z" id="h9TYJrsOR"></path><path d="M360 61.5L350 66.5L350 76.49L360 81.49L370 76.49L370 66.5L360 61.5Z" id="a1Vt1rbjrC"></path><path d="M373.33 1.5L363.33 6.5L363.33 16.5L373.33 21.5L383.33 16.5L383.33 6.5L373.33 1.5Z" id="a1avwVozBE"></path><path d="M400 41.5L390 46.5L390 56.5L400 61.5L410 56.5L410 46.5L400 41.5Z" id="a1x8cs9hYO"></path><path d="M466.67 21.5L456.67 26.5L456.67 36.5L466.67 41.5L476.67 36.5L476.67 26.5L466.67 21.5Z" id="cCZcQEOpc"></path></defs><g><g><g><use xlink:href="#a7X6DxJqK" opacity="1" fill="#d8d8d8" fill-opacity="1"></use><g><use xlink:href="#a7X6DxJqK" opacity="1" fill-opacity="0" stroke="#1c5b6b" stroke-width="3" stroke-opacity="1"></use></g></g><g><use xlink:href="#fBrEERPYg" opacity="1" fill="#d8d8d8" fill-opacity="1"></use><g><use xlink:href="#fBrEERPYg" opacity="1" fill-opacity="0" stroke="#1c5b6b" stroke-width="3" stroke-opacity="1"></use></g></g><g><use xlink:href="#f3dmpKNmFp" opacity="1" fill="#d8d8d8" fill-opacity="1"></use><g><use xlink:href="#f3dmpKNmFp" opacity="1" fill-opacity="0" stroke="#1c5b6b" stroke-width="3" stroke-opacity="1"></use></g></g><g><use xlink:href="#b1F06cWm4j" opacity="1" fill="#d8d8d8" fill-opacity="1"></use><g><use xlink:href="#b1F06cWm4j" opacity="1" fill-opacity="0" stroke="#1c5b6b" stroke-width="3" stroke-opacity="1"></use></g></g><g><use xlink:href="#cwojzCYfQ" opacity="1" fill="#d8d8d8" fill-opacity="1"></use><g><use xlink:href="#cwojzCYfQ" opacity="1" fill-opacity="0" stroke="#1c5b6b" stroke-width="3" stroke-opacity="1"></use></g></g><g><use xlink:href="#d28EUtf5b" opacity="1" fill="#d8d8d8" fill-opacity="1"></use><g><use xlink:href="#d28EUtf5b" opacity="1" fill-opacity="0" stroke="#1c5b6b" stroke-width="3" stroke-opacity="1"></use></g></g><g><use xlink:href="#cxM1zvOVY" opacity="1" fill="#d8d8d8" fill-opacity="1"></use><g><use xlink:href="#cxM1zvOVY" opacity="1" fill-opacity="0" stroke="#1c5b6b" stroke-width="3" stroke-opacity="1"></use></g></g><g><use xlink:href="#a1DmRzbR9j" opacity="1" fill="#d8d8d8" fill-opacity="1"></use><g><use xlink:href="#a1DmRzbR9j" opacity="1" fill-opacity="0" stroke="#1c5b6b" stroke-width="3" stroke-opacity="1"></use></g></g><g><use xlink:href="#aLRM8DDLr" opacity="1" fill="#d8d8d8" fill-opacity="1"></use><g><use xlink:href="#aLRM8DDLr" opacity="1" fill-opacity="0" stroke="#1c5b6b" stroke-width="3" stroke-opacity="1"></use></g></g><g><use xlink:href="#c2e7RzP8Sz" opacity="1" fill="#d8d8d8" fill-opacity="1"></use><g><use xlink:href="#c2e7RzP8Sz" opacity="1" fill-opacity="0" stroke="#1c5b6b" stroke-width="3" stroke-opacity="1"></use></g></g><g><use xlink:href="#d2Tm5UEJ7j" opacity="1" fill="#d8d8d8" fill-opacity="1"></use><g><use xlink:href="#d2Tm5UEJ7j" opacity="1" fill-opacity="0" stroke="#1c5b6b" stroke-width="3" stroke-opacity="1"></use></g></g><g><use xlink:href="#a3NW67Fl8" opacity="1" fill="#d8d8d8" fill-opacity="1"></use><g><use xlink:href="#a3NW67Fl8" opacity="1" fill-opacity="0" stroke="#1c5b6b" stroke-width="3" stroke-opacity="1"></use></g></g><g><use xlink:href="#bz8W7hx3C" opacity="1" fill="#d8d8d8" fill-opacity="1"></use><g><use xlink:href="#bz8W7hx3C" opacity="1" fill-opacity="0" stroke="#1c5b6b" stroke-width="3" stroke-opacity="1"></use></g></g><g><use xlink:href="#d6yUjCGwdu" opacity="1" fill="#d8d8d8" fill-opacity="1"></use><g><use xlink:href="#d6yUjCGwdu" opacity="1" fill-opacity="0" stroke="#1c5b6b" stroke-width="3" stroke-opacity="1"></use></g></g><g><use xlink:href="#anGUxyRCd" opacity="1" fill="#d8d8d8" fill-opacity="1"></use><g><use xlink:href="#anGUxyRCd" opacity="1" fill-opacity="0" stroke="#1c5b6b" stroke-width="3" stroke-opacity="1"></use></g></g><g><use xlink:href="#b27lDDfDVQ" opacity="1" fill="#d8d8d8" fill-opacity="1"></use><g><use xlink:href="#b27lDDfDVQ" opacity="1" fill-opacity="0" stroke="#1c5b6b" stroke-width="3" stroke-opacity="1"></use></g></g><g><use xlink:href="#f1sUH6158" opacity="1" fill="#d8d8d8" fill-opacity="1"></use><g><use xlink:href="#f1sUH6158" opacity="1" fill-opacity="0" stroke="#1c5b6b" stroke-width="3" stroke-opacity="1"></use></g></g><g><use xlink:href="#a2g9V2zz3t" opacity="1" fill="#d8d8d8" fill-opacity="1"></use><g><use xlink:href="#a2g9V2zz3t" opacity="1" fill-opacity="0" stroke="#1c5b6b" stroke-width="3" stroke-opacity="1"></use></g></g><g><use xlink:href="#n243Vo3Vo" opacity="1" fill="#d8d8d8" fill-opacity="1"></use><g><use xlink:href="#n243Vo3Vo" opacity="1" fill-opacity="0" stroke="#1c5b6b" stroke-width="3" stroke-opacity="1"></use></g></g><g><use xlink:href="#f54AHMqIsg" opacity="1" fill="#d8d8d8" fill-opacity="1"></use><g><use xlink:href="#f54AHMqIsg" opacity="1" fill-opacity="0" stroke="#1c5b6b" stroke-width="3" stroke-opacity="1"></use></g></g><g><use xlink:href="#cbbCbnXrw" opacity="1" fill="#d8d8d8" fill-opacity="1"></use><g><use xlink:href="#cbbCbnXrw" opacity="1" fill-opacity="0" stroke="#1c5b6b" stroke-width="3" stroke-opacity="1"></use></g></g><g><use xlink:href="#d3EcUMS62F" opacity="1" fill="#d8d8d8" fill-opacity="1"></use><g><use xlink:href="#d3EcUMS62F" opacity="1" fill-opacity="0" stroke="#1c5b6b" stroke-width="3" stroke-opacity="1"></use></g></g><g><use xlink:href="#j1j037JeL2" opacity="1" fill="#d8d8d8" fill-opacity="1"></use><g><use xlink:href="#j1j037JeL2" opacity="1" fill-opacity="0" stroke="#1c5b6b" stroke-width="3" stroke-opacity="1"></use></g></g><g><use xlink:href="#k8n6ysDML" opacity="1" fill="#d8d8d8" fill-opacity="1"></use><g><use xlink:href="#k8n6ysDML" opacity="1" fill-opacity="0" stroke="#1c5b6b" stroke-width="3" stroke-opacity="1"></use></g></g><g><use xlink:href="#b1P1CAN7gn" opacity="1" fill="#d8d8d8" fill-opacity="1"></use><g><use xlink:href="#b1P1CAN7gn" opacity="1" fill-opacity="0" stroke="#1c5b6b" stroke-width="3" stroke-opacity="1"></use></g></g><g><use xlink:href="#h5AzbF1FM" opacity="1" fill="#d8d8d8" fill-opacity="1"></use><g><use xlink:href="#h5AzbF1FM" opacity="1" fill-opacity="0" stroke="#1c5b6b" stroke-width="3" stroke-opacity="1"></use></g></g><g><use xlink:href="#h1pCpWJ3ub" opacity="1" fill="#d8d8d8" fill-opacity="1"></use><g><use xlink:href="#h1pCpWJ3ub" opacity="1" fill-opacity="0" stroke="#1c5b6b" stroke-width="3" stroke-opacity="1"></use></g></g><g><use xlink:href="#a1wCDIaSaI" opacity="1" fill="#d8d8d8" fill-opacity="1"></use><g><use xlink:href="#a1wCDIaSaI" opacity="1" fill-opacity="0" stroke="#1c5b6b" stroke-width="3" stroke-opacity="1"></use></g></g><g><use xlink:href="#b2t7CzBCz" opacity="1" fill="#d8d8d8" fill-opacity="1"></use><g><use xlink:href="#b2t7CzBCz" opacity="1" fill-opacity="0" stroke="#1c5b6b" stroke-width="3" stroke-opacity="1"></use></g></g><g><use xlink:href="#bRVAjtkT5" opacity="1" fill="#d8d8d8" fill-opacity="1"></use><g><use xlink:href="#bRVAjtkT5" opacity="1" fill-opacity="0" stroke="#1c5b6b" stroke-width="3" stroke-opacity="1"></use></g></g><g><use xlink:href="#c7kWJzO9VJ" opacity="1" fill="#d8d8d8" fill-opacity="1"></use><g><use xlink:href="#c7kWJzO9VJ" opacity="1" fill-opacity="0" stroke="#1c5b6b" stroke-width="3" stroke-opacity="1"></use></g></g><g><use xlink:href="#h1CCVqrXiI" opacity="1" fill="#d8d8d8" fill-opacity="1"></use><g><use xlink:href="#h1CCVqrXiI" opacity="1" fill-opacity="0" stroke="#1c5b6b" stroke-width="3" stroke-opacity="1"></use></g></g><g><use xlink:href="#aBB4Jzhbd" opacity="1" fill="#d8d8d8" fill-opacity="1"></use><g><use xlink:href="#aBB4Jzhbd" opacity="1" fill-opacity="0" stroke="#1c5b6b" stroke-width="3" stroke-opacity="1"></use></g></g><g><use xlink:href="#c1UIxKJB" opacity="1" fill="#d8d8d8" fill-opacity="1"></use><g><use xlink:href="#c1UIxKJB" opacity="1" fill-opacity="0" stroke="#1c5b6b" stroke-width="3" stroke-opacity="1"></use></g></g><g><use xlink:href="#a2cqYSjxwX" opacity="1" fill="#d8d8d8" fill-opacity="1"></use><g><use xlink:href="#a2cqYSjxwX" opacity="1" fill-opacity="0" stroke="#1c5b6b" stroke-width="3" stroke-opacity="1"></use></g></g><g><use xlink:href="#a1osu7G9Z" opacity="1" fill="#d8d8d8" fill-opacity="1"></use><g><use xlink:href="#a1osu7G9Z" opacity="1" fill-opacity="0" stroke="#1c5b6b" stroke-width="3" stroke-opacity="1"></use></g></g><g><use xlink:href="#c5KOUtx25y" opacity="1" fill="#d8d8d8" fill-opacity="1"></use><g><use xlink:href="#c5KOUtx25y" opacity="1" fill-opacity="0" stroke="#1c5b6b" stroke-width="3" stroke-opacity="1"></use></g></g><g><use xlink:href="#f1lOGyYrr" opacity="1" fill="#d8d8d8" fill-opacity="1"></use><g><use xlink:href="#f1lOGyYrr" opacity="1" fill-opacity="0" stroke="#1c5b6b" stroke-width="3" stroke-opacity="1"></use></g></g><g><use xlink:href="#bODDlzy6L" opacity="1" fill="#d8d8d8" fill-opacity="1"></use><g><use xlink:href="#bODDlzy6L" opacity="1" fill-opacity="0" stroke="#1c5b6b" stroke-width="3" stroke-opacity="1"></use></g></g><g><use xlink:href="#aNhc3xfY" opacity="1" fill="#d8d8d8" fill-opacity="1"></use><g><use xlink:href="#aNhc3xfY" opacity="1" fill-opacity="0" stroke="#1c5b6b" stroke-width="3" stroke-opacity="1"></use></g></g><g><use xlink:href="#d1jzLUKeFy" opacity="1" fill="#d8d8d8" fill-opacity="1"></use><g><use xlink:href="#d1jzLUKeFy" opacity="1" fill-opacity="0" stroke="#1c5b6b" stroke-width="3" stroke-opacity="1"></use></g></g><g><use xlink:href="#azEaT0TWI" opacity="1" fill="#d8d8d8" fill-opacity="1"></use><g><use xlink:href="#azEaT0TWI" opacity="1" fill-opacity="0" stroke="#1c5b6b" stroke-width="3" stroke-opacity="1"></use></g></g><g><use xlink:href="#d5hisgMOO" opacity="1" fill="#d8d8d8" fill-opacity="1"></use><g><use xlink:href="#d5hisgMOO" opacity="1" fill-opacity="0" stroke="#1c5b6b" stroke-width="3" stroke-opacity="1"></use></g></g><g><use xlink:href="#f53PD2gqr" opacity="1" fill="#d8d8d8" fill-opacity="1"></use><g><use xlink:href="#f53PD2gqr" opacity="1" fill-opacity="0" stroke="#1c5b6b" stroke-width="3" stroke-opacity="1"></use></g></g><g><use xlink:href="#dFzBerkpk" opacity="1" fill="#d8d8d8" fill-opacity="1"></use><g><use xlink:href="#dFzBerkpk" opacity="1" fill-opacity="0" stroke="#1c5b6b" stroke-width="3" stroke-opacity="1"></use></g></g><g><use xlink:href="#b3T4ywW3n2" opacity="1" fill="#d8d8d8" fill-opacity="1"></use><g><use xlink:href="#b3T4ywW3n2" opacity="1" fill-opacity="0" stroke="#1c5b6b" stroke-width="3" stroke-opacity="1"></use></g></g><g><use xlink:href="#g8NRcqDzQG" opacity="1" fill="#d8d8d8" fill-opacity="1"></use><g><use xlink:href="#g8NRcqDzQG" opacity="1" fill-opacity="0" stroke="#1c5b6b" stroke-width="3" stroke-opacity="1"></use></g></g><g><use xlink:href="#c2WDqGoaB3" opacity="1" fill="#d8d8d8" fill-opacity="1"></use><g><use xlink:href="#c2WDqGoaB3" opacity="1" fill-opacity="0" stroke="#1c5b6b" stroke-width="3" stroke-opacity="1"></use></g></g><g><use xlink:href="#afQ1MOKti" opacity="1" fill="#d8d8d8" fill-opacity="1"></use><g><use xlink:href="#afQ1MOKti" opacity="1" fill-opacity="0" stroke="#1c5b6b" stroke-width="3" stroke-opacity="1"></use></g></g><g><use xlink:href="#ktz5fkdWb" opacity="1" fill="#d8d8d8" fill-opacity="1"></use><g><use xlink:href="#ktz5fkdWb" opacity="1" fill-opacity="0" stroke="#1c5b6b" stroke-width="3" stroke-opacity="1"></use></g></g><g><use xlink:href="#fzMHhteGE" opacity="1" fill="#d8d8d8" fill-opacity="1"></use><g><use xlink:href="#fzMHhteGE" opacity="1" fill-opacity="0" stroke="#1c5b6b" stroke-width="3" stroke-opacity="1"></use></g></g><g><use xlink:href="#b1umyGfRK" opacity="1" fill="#d8d8d8" fill-opacity="1"></use><g><use xlink:href="#b1umyGfRK" opacity="1" fill-opacity="0" stroke="#1c5b6b" stroke-width="3" stroke-opacity="1"></use></g></g><g><use xlink:href="#d250jjTiK9" opacity="1" fill="#d8d8d8" fill-opacity="1"></use><g><use xlink:href="#d250jjTiK9" opacity="1" fill-opacity="0" stroke="#1c5b6b" stroke-width="3" stroke-opacity="1"></use></g></g><g><use xlink:href="#f1s9FtUz3F" opacity="1" fill="#d8d8d8" fill-opacity="1"></use><g><use xlink:href="#f1s9FtUz3F" opacity="1" fill-opacity="0" stroke="#1c5b6b" stroke-width="3" stroke-opacity="1"></use></g></g><g><use xlink:href="#bSEiQeBFp" opacity="1" fill="#d8d8d8" fill-opacity="1"></use><g><use xlink:href="#bSEiQeBFp" opacity="1" fill-opacity="0" stroke="#1c5b6b" stroke-width="3" stroke-opacity="1"></use></g></g><g><use xlink:href="#a2jgax68AH" opacity="1" fill="#d8d8d8" fill-opacity="1"></use><g><use xlink:href="#a2jgax68AH" opacity="1" fill-opacity="0" stroke="#1c5b6b" stroke-width="3" stroke-opacity="1"></use></g></g><g><use xlink:href="#a2nOdBcpt3" opacity="1" fill="#d8d8d8" fill-opacity="1"></use><g><use xlink:href="#a2nOdBcpt3" opacity="1" fill-opacity="0" stroke="#1c5b6b" stroke-width="3" stroke-opacity="1"></use></g></g><g><use xlink:href="#aDYimCft" opacity="1" fill="#d8d8d8" fill-opacity="1"></use><g><use xlink:href="#aDYimCft" opacity="1" fill-opacity="0" stroke="#1c5b6b" stroke-width="3" stroke-opacity="1"></use></g></g><g><use xlink:href="#j6qGDdlYOt" opacity="1" fill="#d8d8d8" fill-opacity="1"></use><g><use xlink:href="#j6qGDdlYOt" opacity="1" fill-opacity="0" stroke="#1c5b6b" stroke-width="3" stroke-opacity="1"></use></g></g><g><use xlink:href="#c3jXyXoULS" opacity="1" fill="#d8d8d8" fill-opacity="1"></use><g><use xlink:href="#c3jXyXoULS" opacity="1" fill-opacity="0" stroke="#1c5b6b" stroke-width="3" stroke-opacity="1"></use></g></g><g><use xlink:href="#i1qzRHXQLh" opacity="1" fill="#d8d8d8" fill-opacity="1"></use><g><use xlink:href="#i1qzRHXQLh" opacity="1" fill-opacity="0" stroke="#1c5b6b" stroke-width="3" stroke-opacity="1"></use></g></g><g><use xlink:href="#a22wjw4EkA" opacity="1" fill="#d8d8d8" fill-opacity="1"></use><g><use xlink:href="#a22wjw4EkA" opacity="1" fill-opacity="0" stroke="#1c5b6b" stroke-width="3" stroke-opacity="1"></use></g></g><g><use xlink:href="#a16ZsXzPOx" opacity="1" fill="#d8d8d8" fill-opacity="1"></use><g><use xlink:href="#a16ZsXzPOx" opacity="1" fill-opacity="0" stroke="#1c5b6b" stroke-width="3" stroke-opacity="1"></use></g></g><g><use xlink:href="#b1sr6ilqZF" opacity="1" fill="#ff0000" fill-opacity="1"></use><g><use xlink:href="#b1sr6ilqZF" opacity="1" fill-opacity="0" stroke="#1c5b6b" stroke-width="3" stroke-opacity="1"></use></g></g><g><use xlink:href="#b19L6gtEBi" opacity="1" fill="#ff0000" fill-opacity="1"></use><g><use xlink:href="#b19L6gtEBi" opacity="1" fill-opacity="0" stroke="#1c5b6b" stroke-width="3" stroke-opacity="1"></use></g></g><g><use xlink:href="#b1uFBeEqg5" opacity="1" fill="#ff0000" fill-opacity="1"></use><g><use xlink:href="#b1uFBeEqg5" opacity="1" fill-opacity="0" stroke="#1c5b6b" stroke-width="3" stroke-opacity="1"></use></g></g><g><use xlink:href="#bGMybTGHw" opacity="1" fill="#ff0000" fill-opacity="1"></use><g><use xlink:href="#bGMybTGHw" opacity="1" fill-opacity="0" stroke="#1c5b6b" stroke-width="3" stroke-opacity="1"></use></g></g><g><use xlink:href="#dcGsiAoD1" opacity="1" fill="#ff0000" fill-opacity="1"></use><g><use xlink:href="#dcGsiAoD1" opacity="1" fill-opacity="0" stroke="#1c5b6b" stroke-width="3" stroke-opacity="1"></use></g></g><g><use xlink:href="#c1XbAfD9hy" opacity="1" fill="#ff0000" fill-opacity="1"></use><g><use xlink:href="#c1XbAfD9hy" opacity="1" fill-opacity="0" stroke="#1c5b6b" stroke-width="3" stroke-opacity="1"></use></g></g><g><use xlink:href="#h9TYJrsOR" opacity="1" fill="#ff0000" fill-opacity="1"></use><g><use xlink:href="#h9TYJrsOR" opacity="1" fill-opacity="0" stroke="#1c5b6b" stroke-width="3" stroke-opacity="1"></use></g></g><g><use xlink:href="#a1Vt1rbjrC" opacity="1" fill="#ff0000" fill-opacity="1"></use><g><use xlink:href="#a1Vt1rbjrC" opacity="1" fill-opacity="0" stroke="#1c5b6b" stroke-width="3" stroke-opacity="1"></use></g></g><g><use xlink:href="#a1avwVozBE" opacity="1" fill="#ff0000" fill-opacity="1"></use><g><use xlink:href="#a1avwVozBE" opacity="1" fill-opacity="0" stroke="#1c5b6b" stroke-width="3" stroke-opacity="1"></use></g></g><g><use xlink:href="#a1x8cs9hYO" opacity="1" fill="#ff0000" fill-opacity="1"></use><g><use xlink:href="#a1x8cs9hYO" opacity="1" fill-opacity="0" stroke="#1c5b6b" stroke-width="3" stroke-opacity="1"></use></g></g><g><use xlink:href="#cCZcQEOpc" opacity="1" fill="#ff0000" fill-opacity="1"></use><g><use xlink:href="#cCZcQEOpc" opacity="1" fill-opacity="0" stroke="#1c5b6b" stroke-width="3" stroke-opacity="1"></use></g></g></g></g></svg>